<?xml version="1.0"?>
<svg version="1.1" xmlns="http://www.w3.org/2000/svg" width="140" height="90" style=""><path fill="#0c7ecf" d="M21.786,80.958l17.784-48.048l7.8-0.39l17.316,48.438l6.474,1.482l0,4.68l-22.62,0l0-4.68l7.254-1.482l-2.964-8.658l-20.28,0l-3.042,8.658l7.332,1.482l0,4.68l-21.45,0l0-4.68z M50.724,66.06l-7.878-23.478l-8.19,23.478l16.068,0z M87.0408,87.12l0-4.68l7.8-1.56l0-42.12l-10.14,0l-1.95,7.8l-5.07,0l0-14.04l42.51,0l0,14.04l-5.07,0l-1.95-7.8l-10.14,0l0,42.12l7.8,1.56l0,4.68l-23.79,0z"/><path fill="#" d=""/></svg>
